<?xml version="1.0" encoding="UTF-8"?><svg id="a" xmlns="http://www.w3.org/2000/svg" viewBox="0 0 807.83 854.03"><defs><style>.b{fill:none;stroke:#adf5cc;stroke-miterlimit:10;stroke-width:23px;}.c{fill:#fff;}.d{fill:#108944;}.e{fill:#17c964;}</style></defs><circle class="b" cx="411.28" cy="457.47" r="385.06"/><circle class="c" cx="404.28" cy="76.92" r="76.92"/><circle class="c" cx="88.29" cy="712.64" r="88.29"/><circle class="c" cx="708.05" cy="712.64" r="88.29"/><path class="e" d="M319.39,709.38c-26.91-9.2-51.65-22.1-74.2-38.71-22.56-16.6-42.13-36.18-58.74-58.74-16.6-22.55-29.51-47.32-38.71-74.3-9.2-26.98-13.8-55.21-13.8-84.68s4.57-57.87,13.7-84.78c9.13-26.91,22.03-51.65,38.71-74.2,16.67-22.55,36.25-42.17,58.74-58.84,22.48-16.67,47.18-29.61,74.1-38.81,26.91-9.2,55.17-13.8,84.79-13.8s57.91,4.6,84.89,13.8c26.98,9.2,51.75,22.14,74.3,38.81,22.55,16.68,42.17,36.29,58.84,58.84,16.67,22.56,29.61,47.29,38.81,74.2,9.2,26.91,13.8,55.18,13.8,84.78s-4.6,57.7-13.8,84.68c-9.2,26.98-22.14,51.75-38.81,74.3-16.68,22.55-36.29,42.13-58.84,58.74-22.55,16.6-47.29,29.5-74.2,38.71-26.91,9.2-55.18,13.8-84.78,13.8s-57.87-4.6-84.79-13.8Zm-81.36-272.62c2.14,2.35,5.01,3.53,8.61,3.53,1.94,0,3.66-.45,5.19-1.35,1.52-.9,2.97-1.97,4.36-3.22l140.31-117.68c2.77-2.35,5.43-3.46,7.99-3.32,2.56,.14,5.15,1.25,7.78,3.32l139.89,117.68c1.66,1.25,3.25,2.32,4.77,3.22,1.52,.9,3.18,1.35,4.98,1.35,3.32,0,6.09-1,8.3-3.01,2.21-2,3.32-4.67,3.32-7.99,0-4.01-1.38-7.26-4.15-9.76l-39.43-33v-56.45c0-6.23-3.11-9.34-9.34-9.34h-14.11c-6.37,0-9.55,3.11-9.55,9.34v28.64l-72.44-60.81c-6.09-5.12-12.76-7.68-20.03-7.68s-14.01,2.56-20.24,7.68l-145.08,121.62c-2.91,2.63-4.36,5.74-4.36,9.34,0,2.91,1.07,5.54,3.22,7.89Zm48.77,144.15c5.46,5.33,13.04,7.99,22.73,7.99h189.7c9.68,0,17.23-2.66,22.62-7.99,5.4-5.33,8.09-12.76,8.09-22.31v-119.13l-116.85-98.17c-5.81-4.84-11.69-4.84-17.64,0l-116.85,98.17v119.13c0,9.55,2.73,16.99,8.2,22.31Zm80.84-108.65c0-7.06,3.46-10.58,10.38-10.58h52.72c6.92,0,10.38,3.53,10.38,10.58v92.15h-73.47v-92.15Z"/><path class="d" d="M402.34,136.67c-.74-.31-1.39-.65-1.94-1.02-8.28-5.33-15.77-10.84-22.47-16.53-6.7-5.7-12.44-11.53-17.23-17.5-4.79-5.97-8.47-12.05-11.04-18.22-2.57-6.17-3.86-12.4-3.86-18.68,0-5.14,.82-9.87,2.47-14.18,1.65-4.31,3.96-8.04,6.93-11.2,2.97-3.16,6.44-5.6,10.42-7.32,3.97-1.72,8.27-2.59,12.89-2.59,3.79,0,7.31,.67,10.58,2.01s6.18,3.22,8.75,5.63c2.57,2.42,4.72,5.26,6.44,8.52,1.76-3.26,3.92-6.1,6.49-8.52,2.57-2.42,5.48-4.3,8.73-5.63,3.25-1.34,6.77-2.01,10.55-2.01,4.65,0,8.95,.86,12.91,2.59,3.96,1.72,7.42,4.16,10.39,7.32,2.97,3.16,5.28,6.89,6.93,11.2,1.65,4.31,2.47,9.04,2.47,14.18,0,6.28-1.29,12.51-3.86,18.68-2.57,6.17-6.25,12.25-11.04,18.22-4.79,5.97-10.53,11.81-17.23,17.5s-14.17,11.21-22.42,16.53c-.59,.37-1.24,.71-1.96,1.02-.72,.31-1.38,.46-1.96,.46-.55,0-1.2-.15-1.94-.46Z"/><path class="d" d="M51.21,779.44c-.82-.97-1.22-2.27-1.22-3.9v-17.32h-3.42c-5.57,0-10.3-1.02-14.18-3.05-3.88-2.03-6.83-4.98-8.84-8.84-2.02-3.86-3.03-8.55-3.03-14.06v-47.11c0-5.51,1.01-10.21,3.03-14.09,2.02-3.88,4.96-6.84,8.84-8.89,3.88-2.05,8.61-3.07,14.18-3.07H124.58c5.57,0,10.3,1.02,14.18,3.07,3.88,2.05,6.83,5.01,8.85,8.89,2.02,3.88,3.03,8.58,3.03,14.09v47.11c0,5.48-1.01,10.16-3.03,14.04-2.02,3.88-4.96,6.84-8.85,8.87-3.88,2.03-8.61,3.05-14.18,3.05h-42.45l-21.57,19.44c-1.2,1.08-2.23,1.89-3.09,2.42-.86,.54-1.8,.81-2.82,.81-1.48,0-2.63-.49-3.44-1.46Z"/><path class="d" d="M670.93,770.22c-.23-1.36-.02-3,.62-4.94l12.61-37.78-32.38-23.28c-1.63-1.17-2.76-2.37-3.39-3.6s-.73-2.49-.3-3.79c.4-1.26,1.22-2.22,2.45-2.86,1.23-.65,2.86-.95,4.9-.92l39.77,.23,12.15-37.96c.62-1.94,1.41-3.39,2.38-4.36s2.13-1.46,3.49-1.46,2.51,.48,3.46,1.46c.95,.97,1.75,2.42,2.4,4.36l12.1,37.96,39.77-.23c2.06-.03,3.7,.28,4.92,.92,1.21,.65,2.04,1.6,2.47,2.86,.43,1.29,.33,2.56-.3,3.79s-1.78,2.43-3.44,3.6l-32.38,23.28,12.61,37.78c.68,1.94,.89,3.59,.65,4.94-.25,1.35-.89,2.43-1.94,3.23-1.11,.8-2.34,1.08-3.69,.85-1.36-.23-2.87-.95-4.53-2.15l-32.1-23.56-32.14,23.56c-1.66,1.2-3.17,1.92-4.53,2.15-1.36,.23-2.57-.05-3.65-.85-1.08-.8-1.73-1.88-1.96-3.23Z"/></svg>